<?xml version="1.0" encoding="utf-8"?>
<!-- Generator: Adobe Illustrator 19.1.0, SVG Export Plug-In . SVG Version: 6.00 Build 0)  -->
<svg version="1.1" id="Layer_1" xmlns="http://www.w3.org/2000/svg" xmlns:xlink="http://www.w3.org/1999/xlink" x="0px" y="0px"
	 viewBox="0 0 335.6 188.6" style="enable-background:new 0 0 335.6 188.6;" xml:space="preserve">
<style type="text/css">
	.st0{fill:#67C1B2;}
</style>
<g>
	<path class="st0" d="M50,148c-7.2,0-13.9-1.5-20-4.6c-6.1-3.1-11.4-7.1-15.9-12.2c-4.5-5.1-7.9-10.8-10.4-17.2
		C1.2,107.6,0,101.1,0,94.4c0-7.2,1.2-14,3.6-20.5C6,67.4,9.4,61.7,13.7,56.8C18,51.9,23.1,47.9,29,45c5.9-2.9,12.3-4.4,19.2-4.4
		c4.8,0,9.3,0.7,13.5,2.1c4.2,1.4,8.1,3.3,11.7,5.6c3.6,2.3,6.8,5.1,9.7,8.2c2.9,3.1,5.4,6.4,7.5,9.9V0h4v138c0,2.7,1.1,4,3.2,4v4
		c-1.2,0-2.1-0.1-2.6-0.4c-1.5-0.7-2.6-1.7-3.4-3.1s-1.2-2.9-1.2-4.5v-13.6c-2.3,3.5-4.9,6.6-7.9,9.5c-3,2.9-6.3,5.4-9.8,7.5
		c-3.5,2.1-7.2,3.8-11.1,4.9C57.9,147.4,54,148,50,148z M50,144c4,0,8.3-0.9,13-2.6c4.7-1.7,9-4,13-6.9c4-2.9,7.4-6.2,10.1-10.1
		c2.7-3.9,4.2-7.9,4.5-12.2V74.8c-1.5-4.1-3.7-8-6.8-11.7c-3.1-3.7-6.5-6.9-10.4-9.6c-3.9-2.7-8-4.9-12.4-6.5
		c-4.4-1.6-8.7-2.4-12.8-2.4c-6.8,0-12.9,1.4-18.3,4.3c-5.4,2.9-10,6.6-13.9,11.3c-3.9,4.7-6.8,10-8.9,16C5,82.2,4,88.3,4,94.4
		c0,6.5,1.2,12.8,3.6,18.7c2.4,5.9,5.7,11.2,9.8,15.8c4.1,4.6,9,8.3,14.6,11C37.6,142.6,43.6,144,50,144z"/>
	<path class="st0" d="M147.8,146L102.6,42.2h4.4l42.6,98l42.6-98h4.4L151.4,146H147.8z"/>
	<path class="st0" d="M204.6,0h4v130.6c0,3.9,1.2,6.9,3.6,9.2c2.4,2.3,5.6,3.4,9.6,3.4c1.5,0,3.2-0.2,5.3-0.5c2.1-0.3,4-0.8,5.7-1.3
		l1.4,3.2c-1.9,0.7-4.2,1.2-6.9,1.7c-2.7,0.5-5,0.7-6.9,0.7c-4.7,0-8.5-1.5-11.4-4.5c-2.9-3-4.4-7-4.4-11.9V0z"/>
	<path class="st0" d="M287.4,148c-4.7,0-9.1-0.7-13.2-2.1c-4.1-1.4-8-3.3-11.6-5.6c-3.6-2.3-6.9-5.1-9.8-8.2
		c-2.9-3.1-5.5-6.4-7.8-9.9v66.4h-4V42.2h4v22c2.1-3.5,4.7-6.6,7.8-9.5c3.1-2.9,6.4-5.4,9.9-7.5c3.5-2.1,7.2-3.8,11.1-4.9
		c3.9-1.1,7.8-1.7,11.8-1.7c7.3,0,14.1,1.6,20.2,4.7c6.1,3.1,11.4,7.2,15.8,12.3c4.4,5.1,7.8,10.8,10.3,17.2
		c2.5,6.4,3.7,12.9,3.7,19.6c0,7.1-1.2,13.8-3.5,20.3c-2.3,6.5-5.6,12.2-9.8,17.1c-4.2,4.9-9.3,8.9-15.2,11.8
		C301.2,146.5,294.6,148,287.4,148z M287.4,144c6.8,0,12.9-1.4,18.3-4.3c5.4-2.9,10-6.6,13.9-11.3c3.9-4.7,6.8-10,8.9-15.9
		c2.1-5.9,3.1-12,3.1-18.1c0-6.5-1.2-12.8-3.6-18.8c-2.4-6-5.7-11.3-9.8-15.9c-4.1-4.6-9-8.3-14.6-11c-5.6-2.7-11.6-4.1-18-4.1
		c-4,0-8.3,0.9-13,2.6c-4.7,1.7-9,4.1-13,7c-4,2.9-7.4,6.3-10.1,10.2c-2.7,3.9-4.2,7.9-4.5,12v37.4c1.9,4.3,4.3,8.2,7.2,11.9
		c2.9,3.7,6.2,6.8,9.9,9.5c3.7,2.7,7.6,4.8,11.9,6.4C278.3,143.2,282.7,144,287.4,144z"/>
</g>
</svg>
